<svg width="14" height="14" viewBox="0 0 14 14" fill="none" xmlns="http://www.w3.org/2000/svg">
<g id="Group 1533209161">
<path id="Vector" d="M13.6902 6.22185L12.3538 4.9113V3.25835C12.3522 2.6697 12.5276 1.60709 11.9422 1.6054H8.64858L7.82519 0.367373C7.41012 -0.0475515 6.66434 -0.150439 6.24927 0.264485L5.35501 1.60709H2.88314C2.29597 1.60877 1.61937 2.07092 1.61768 2.65958V4.82359L0.310038 6.22354C-0.103346 6.64015 -0.103346 7.31483 0.310038 7.73144L1.61768 9.14994V11.314C1.61937 11.9026 1.88427 12.3479 2.47144 12.3496H4.94162L6.24758 13.6888C6.66265 14.1037 7.33587 14.1037 7.75095 13.6888L9.05859 12.3496H11.1171C11.7042 12.3479 12.3505 11.6985 12.3522 11.1099V9.04368L13.6885 7.73144C14.1036 7.31314 14.1036 6.64015 13.6902 6.22185ZM7.01023 10.2311L3.23578 4.82191H5.93206L7.00011 8.04347L8.0884 4.82191H10.7847L7.01023 10.2311Z" fill="#61D25F"/>
</g>
</svg>
