<svg width="9" height="9" viewBox="0 0 9 9" fill="none" xmlns="http://www.w3.org/2000/svg">
<g id="&#231;&#188;&#150;&#231;&#187;&#132; 2&#229;&#164;&#135;&#228;&#187;&#189;">
<path id="&#229;&#189;&#162;&#231;&#138;&#182;&#231;&#187;&#147;&#229;&#144;&#136;" fill-rule="evenodd" clip-rule="evenodd" d="M6.03991 0.642857C6.03991 0.287817 5.7521 0 5.39706 0H0.642857C0.287817 0 0 0.287817 0 0.642857V5.50584C0 5.86088 0.287817 6.14869 0.642857 6.14869L0.717828 6.14437C1.03755 6.10724 1.28571 5.83552 1.28571 5.50584V1.28571H5.39706C5.7521 1.28571 6.03991 0.997897 6.03991 0.642857ZM8.35715 2.32424C8.71219 2.32424 9.00001 2.61205 9.00001 2.96709V8.35714C9.00001 8.71218 8.71219 9 8.35715 9H3.41659C3.06155 9 2.77373 8.71218 2.77373 8.35714V2.96709C2.77373 2.61205 3.06155 2.32424 3.41659 2.32424H8.35715ZM7.71414 3.60997H4.0595V7.71397H7.71414V3.60997Z" fill="#8E9BA4"/>
</g>
</svg>
