<svg width="48" height="48" viewBox="0 0 48 48" fill="none" xmlns="http://www.w3.org/2000/svg">
<g id="Group 1533208992">
<circle id="Ellipse 131" cx="24" cy="24" r="24" fill="#ECF2FE"/>
<path id="Vector" d="M24.0501 15C25.9731 15 27.4851 15 28.664 15.1581C29.8731 15.3201 30.832 15.6599 31.5854 16.4146C32.3388 17.168 32.6786 18.1269 32.8419 19.336C33 20.5149 33 22.0256 33 23.9499V24.0501C33 25.9731 33 27.4851 32.8419 28.664C32.6799 29.8731 32.3401 30.832 31.5854 31.5854C30.832 32.3388 29.8731 32.6786 28.664 32.8419C27.4851 33 25.9744 33 24.0501 33H23.9499C22.0269 33 20.5149 33 19.336 32.8419C18.1269 32.6799 17.168 32.3401 16.4146 31.5854C15.6599 30.832 15.3214 29.8731 15.1581 28.664C15 27.4851 15 25.9744 15 24.0501V23.9499C15 22.0269 15 20.5149 15.1581 19.336C15.3201 18.1269 15.6599 17.168 16.4146 16.4146C17.168 15.6599 18.1269 15.3214 19.336 15.1581C20.5149 15 22.0256 15 23.9499 15H24.0501ZM23.7208 22.7066C23.539 22.6829 23.3322 22.6829 23.157 22.6829H23.1215C23.0033 22.6783 22.8855 22.6976 22.775 22.7397C22.6645 22.7817 22.5636 22.8456 22.4784 22.9276C22.3932 23.0096 22.3254 23.1079 22.2791 23.2167C22.2328 23.3255 22.2089 23.4425 22.2089 23.5607C22.2089 23.679 22.2328 23.796 22.2791 23.9048C22.3254 24.0136 22.3932 24.1119 22.4784 24.1939C22.5636 24.2758 22.6645 24.3398 22.775 24.3818C22.8855 24.4239 23.0033 24.4432 23.1215 24.4386V27.9514C23.1215 28.1844 23.214 28.4079 23.3788 28.5726C23.5435 28.7374 23.767 28.8299 24 28.8299C24.233 28.8299 24.4565 28.7374 24.6212 28.5726C24.786 28.4079 24.8785 28.1844 24.8785 27.9514V24.4044C24.8785 24.2292 24.8785 24.0198 24.8535 23.8406C24.8228 23.5502 24.6958 23.2785 24.4926 23.0688C24.2831 22.8651 24.0113 22.7376 23.7208 22.7066ZM23.996 19.1701C23.8809 19.1702 23.7669 19.1931 23.6607 19.2374C23.5544 19.2816 23.4578 19.3464 23.3766 19.428C23.2954 19.5096 23.231 19.6064 23.1873 19.7129C23.1435 19.8194 23.1211 19.9335 23.1215 20.0486C23.1215 20.5333 23.5127 20.9271 23.996 20.9271H24.004C24.1191 20.9269 24.2331 20.9041 24.3393 20.8598C24.4456 20.8156 24.5422 20.7508 24.6234 20.6692C24.7046 20.5876 24.769 20.4908 24.8127 20.3843C24.8565 20.2778 24.8789 20.1637 24.8785 20.0486C24.8789 19.9335 24.8565 19.8194 24.8127 19.7129C24.769 19.6064 24.7046 19.5096 24.6234 19.428C24.5422 19.3464 24.4456 19.2816 24.3393 19.2374C24.2331 19.1931 24.1191 19.1702 24.004 19.1701H23.996Z" fill="#3278FA"/>
</g>
</svg>
