<svg width="48" height="48" viewBox="0 0 48 48" fill="none" xmlns="http://www.w3.org/2000/svg">
<g id="Group 1533208991">
<circle id="Ellipse 131" cx="24" cy="24" r="24" fill="#FEF8EC"/>
<path id="Vector" d="M16.3743 15H31.6257C31.9902 15 32.3398 15.1448 32.5975 15.4025C32.8552 15.6602 33 16.0098 33 16.3743V31.6257C33 31.9902 32.8552 32.3398 32.5975 32.5975C32.3398 32.8552 31.9902 33 31.6257 33H16.3743C16.0098 33 15.6602 32.8552 15.4025 32.5975C15.1448 32.3398 15 31.9902 15 31.6257V16.3743C15 16.0098 15.1448 15.6602 15.4025 15.4025C15.6602 15.1448 16.0098 15 16.3743 15ZM22.7116 27.5092C22.9054 27.5092 23.0985 27.435 23.2524 27.2927L28.6051 21.9173C28.7476 21.7721 28.8274 21.5769 28.8274 21.3735C28.8274 21.17 28.7476 20.9748 28.6051 20.8296C28.5345 20.7579 28.4503 20.701 28.3575 20.6622C28.2646 20.6233 28.165 20.6033 28.0644 20.6033C27.9637 20.6033 27.8641 20.6233 27.7713 20.6622C27.6784 20.701 27.5942 20.7579 27.5236 20.8296L25.2299 23.1314C23.8408 24.5255 21.5831 24.5249 20.1947 23.1301C20.124 23.0584 20.0399 23.0015 19.947 22.9627C19.8542 22.9238 19.7546 22.9038 19.6539 22.9038C19.5533 22.9038 19.4536 22.9238 19.3608 22.9627C19.268 23.0015 19.1838 23.0584 19.1131 23.1301C18.9707 23.2753 18.8909 23.4706 18.8909 23.674C18.8909 23.8774 18.9707 24.0726 19.1131 24.2178L22.1709 27.2872C22.3186 27.435 22.5179 27.5092 22.7116 27.5092Z" fill="#FA9E1C"/>
</g>
</svg>
