<svg width="48" height="48" viewBox="0 0 48 48" fill="none" xmlns="http://www.w3.org/2000/svg">
<g id="Group 1533208987">
<circle id="Ellipse 131" cx="24" cy="24" r="24" fill="#F3F1FF"/>
<g id="Frame" clip-path="url(#clip0_1743_2955)">
<path id="Vector" d="M16 18.0833C16 17.5 16.5 17 17.0833 17H21.5C22.1667 17 22.6667 17.5 22.6667 18.0833V22.5C22.6667 23.1667 22.1667 23.6667 21.5833 23.6667H17.0833C16.5 23.6667 16 23.1667 16 22.5833V18.0833ZM16 26.4167C16 25.8333 16.5 25.3333 17.0833 25.3333H21.5C22.1667 25.3333 22.6667 25.8333 22.6667 26.4167V30.8333C22.6667 31.5 22.1667 32 21.5833 32H17.0833C16.5 32 16 31.5 16 30.9167V26.4167ZM24.3333 18.0833C24.3333 17.5 24.8333 17 25.4167 17H29.8333C30.5 17 31 17.5 31 18.0833V22.5C31 23.1667 30.5 23.6667 29.9167 23.6667H25.5C24.8333 23.6667 24.3333 23.1667 24.3333 22.5833V18.0833ZM24.3333 26.4167C24.3333 25.8333 24.8333 25.3333 25.4167 25.3333H29.8333C30.4167 25.3333 30.9167 25.8333 30.9167 26.4167V30.8333C30.9167 31.4167 30.4167 31.9167 29.8333 31.9167H25.4167C24.8333 31.9167 24.3333 31.4167 24.3333 30.8333V26.4167Z" fill="#7358FD"/>
</g>
</g>
<defs>
<clipPath id="clip0_1743_2955">
<rect width="15" height="15" fill="white" transform="translate(16 17)"/>
</clipPath>
</defs>
</svg>
