<svg width="48" height="48" viewBox="0 0 48 48" fill="none" xmlns="http://www.w3.org/2000/svg">
<g id="Group 1533208985">
<circle id="Ellipse 131" cx="24" cy="24" r="24" fill="#FEF2F2"/>
<path id="Vector" d="M31.4749 27.8958L30.4572 26.2955C30.3561 26.1372 30.2967 25.9548 30.2835 25.7657L29.9296 20.3911C29.7428 17.5423 27.5116 15.177 24.6605 15.0099C21.5611 14.8275 18.932 17.1796 18.732 20.2373L18.3693 25.7635C18.3561 25.9526 18.2967 26.135 18.1956 26.2933L17.1778 27.8936C16.7008 28.6432 17.2394 29.6236 18.1275 29.6236H30.5297C31.4156 29.6236 31.9519 28.6454 31.4749 27.8958ZM25.6211 30.749C26.2059 30.749 26.562 31.3865 26.263 31.8899C25.8717 32.5538 25.1485 33 24.3242 33C23.4999 33 22.7767 32.5538 22.3854 31.8899C22.0886 31.3865 22.4425 30.749 23.0273 30.749H25.6211Z" fill="#F96D76"/>
</g>
</svg>
