<svg width="48" height="48" viewBox="0 0 48 48" fill="none" xmlns="http://www.w3.org/2000/svg">
<g id="Group 1533208984">
<circle id="Ellipse 131" cx="24" cy="24" r="24" fill="#FEF8EC"/>
<g id="Group 1533208983">
<path id="Vector" d="M18.9391 25.4026H29.0638C31.2365 25.4026 33.0007 27.1044 33.0007 29.2013V29.7449C33.0007 31.545 31.4885 33.0001 29.6265 33.0001H18.3742C16.51 33.0001 15 31.5408 15 29.7449V29.2013C15 27.1023 16.762 25.4026 18.9391 25.4026Z" fill="#FFA321"/>
<path id="Vector_2" d="M19.2344 19.6204C19.2344 20.8458 19.7403 22.021 20.6407 22.8875C21.5412 23.754 22.7625 24.2408 24.036 24.2408C25.3095 24.2408 26.5308 23.754 27.4313 22.8875C28.3317 22.021 28.8376 20.8458 28.8376 19.6204C28.8376 18.395 28.3317 17.2198 27.4313 16.3533C26.5308 15.4868 25.3095 15 24.036 15C22.7625 15 21.5412 15.4868 20.6407 16.3533C19.7403 17.2198 19.2344 18.395 19.2344 19.6204Z" fill="#FFA321"/>
</g>
</g>
</svg>
