<svg width="48" height="48" viewBox="0 0 48 48" fill="none" xmlns="http://www.w3.org/2000/svg">
<g id="Group 1533208990">
<circle id="Ellipse 131" cx="24" cy="24" r="24" fill="#EEF8F0"/>
<g id="Group 1533208980">
<path id="Vector" d="M28.8759 20.2555C27.4307 20.2555 26.1168 19.073 26.1168 17.4964V15.3942C26.1168 15.2628 25.9854 15 25.7226 15H17.8394C16.7883 15 16 15.7883 16 16.8394V31.1606C16 32.2117 16.7883 33 17.8394 33H29.2701C30.3212 33 31.1095 32.2117 31.1095 31.1606V20.5182C31.1095 20.3869 30.9781 20.1241 30.7153 20.1241H28.8759V20.2555ZM28.4818 29.8467H18.7591C18.6277 29.8467 18.365 29.7153 18.365 29.4526V29.1898C18.365 29.0584 18.4964 28.7956 18.7591 28.7956H28.3504C28.4818 28.7956 28.7445 28.927 28.7445 29.1898V29.4526C28.7445 29.7153 28.6131 29.8467 28.4818 29.8467ZM28.4818 26.6934H18.7591C18.6277 26.6934 18.365 26.562 18.365 26.2993V26.0365C18.365 25.9051 18.4964 25.6423 18.7591 25.6423H28.3504C28.4818 25.6423 28.7445 25.7737 28.7445 26.0365V26.2993C28.7445 26.562 28.6131 26.6934 28.4818 26.6934ZM28.4818 23.5401H18.7591C18.6277 23.5401 18.365 23.4088 18.365 23.146V23.0146C18.365 22.8832 18.4964 22.6204 18.7591 22.6204H28.3504C28.4818 22.6204 28.7445 22.7518 28.7445 23.0146V23.2774C28.7445 23.4088 28.6131 23.5401 28.4818 23.5401Z" fill="#28D395"/>
<path id="Vector_2" d="M27.0366 16.1821V17.3645C27.0366 18.4156 27.8249 19.204 28.876 19.204H30.0585C30.4527 19.204 30.7155 18.6784 30.3213 18.4156L27.6936 15.7879C27.5622 15.5251 27.0366 15.7879 27.0366 16.1821Z" fill="#28D395"/>
</g>
</g>
</svg>
