<svg width="14" height="14" viewBox="0 0 14 14" fill="none" xmlns="http://www.w3.org/2000/svg">
<g id="&#231;&#188;&#150;&#231;&#187;&#132;">
<g id="&#229;&#189;&#162;&#231;&#138;&#182;&#231;&#187;&#147;&#229;&#144;&#136;">
<path fill-rule="evenodd" clip-rule="evenodd" d="M12.6484 5.00781C12.4375 5.00781 12.2969 4.86719 12.2969 4.65625V2.20178L6.74219 7.82031C6.67188 7.89062 6.53125 7.89062 6.46094 7.89062C6.39062 7.89062 6.25 7.89062 6.17969 7.82031C6.03906 7.67969 6.03906 7.46875 6.17969 7.32812L11.8047 1.70312H9.34375C9.13281 1.70312 8.99219 1.5625 8.99219 1.35156C8.99219 1.14062 9.13281 1 9.34375 1H12.6484C12.8594 1 13 1.14062 13 1.35156V4.65625C13 4.86719 12.8594 5.00781 12.6484 5.00781ZM9.85938 13H2.82812C1.84375 13 1 12.1562 1 11.1719V4.14062C1 3.15625 1.84375 2.3125 2.82812 2.3125H6.0625C6.27344 2.3125 6.41406 2.45312 6.41406 2.66406C6.41406 2.875 6.20312 3.01562 6.0625 3.01562H2.82812C2.19531 3.01562 1.70312 3.50781 1.70312 4.14062V11.1719C1.70312 11.8047 2.19531 12.2969 2.82812 12.2969H9.85938C10.4922 12.2969 10.9844 11.8047 10.9844 11.1719V7.65625C10.9844 7.44531 11.125 7.30469 11.3359 7.30469C11.5469 7.30469 11.6875 7.44531 11.6875 7.65625V11.1719C11.6875 12.1562 10.9141 13 9.85938 13Z" fill="#61D25F"/>
<path d="M12.2969 2.20178H12.7969V0.984849L11.9413 1.85025L12.2969 2.20178ZM6.74219 7.82031L7.09575 8.17387L7.09776 8.17184L6.74219 7.82031ZM11.8047 1.70312L12.1582 2.05668L13.0118 1.20312H11.8047V1.70312ZM11.7969 4.65625C11.7969 4.87534 11.8721 5.09677 12.04 5.26469C12.2079 5.4326 12.4293 5.50781 12.6484 5.50781V4.50781C12.6566 4.50781 12.7022 4.51271 12.7471 4.55758C12.792 4.60245 12.7969 4.64809 12.7969 4.65625H11.7969ZM11.7969 2.20178V4.65625H12.7969V2.20178H11.7969ZM11.9413 1.85025L6.38662 7.46879L7.09776 8.17184L12.6524 2.55331L11.9413 1.85025ZM6.38863 7.46676C6.42968 7.42571 6.46926 7.40633 6.48915 7.39819C6.49976 7.39385 6.50779 7.39146 6.51233 7.39026C6.5147 7.38963 6.51647 7.38922 6.51759 7.38899C6.51871 7.38875 6.51931 7.38865 6.51936 7.38864C6.51942 7.38863 6.51904 7.38869 6.51821 7.3888C6.51737 7.38891 6.51619 7.38904 6.51463 7.38919C6.51144 7.3895 6.50727 7.3898 6.50195 7.39004C6.4905 7.39056 6.47898 7.39062 6.46094 7.39062V8.39062C6.49321 8.39062 6.58486 8.39152 6.68376 8.37503C6.77118 8.36046 6.94974 8.31986 7.09574 8.17387L6.38863 7.46676ZM6.46094 7.39062C6.4429 7.39062 6.43137 7.39056 6.41992 7.39004C6.41461 7.3898 6.41043 7.3895 6.40724 7.38919C6.40568 7.38904 6.4045 7.38891 6.40367 7.3888C6.40283 7.38869 6.40246 7.38863 6.40251 7.38864C6.40256 7.38865 6.40317 7.38875 6.40429 7.38899C6.4054 7.38922 6.40718 7.38963 6.40955 7.39026C6.41408 7.39146 6.42212 7.39385 6.43272 7.39819C6.45262 7.40633 6.49219 7.42571 6.53324 7.46676L5.82613 8.17387C5.97213 8.31986 6.1507 8.36046 6.23811 8.37503C6.33702 8.39152 6.42866 8.39062 6.46094 8.39062V7.39062ZM6.53324 7.46676C6.5537 7.48722 6.57422 7.52533 6.57422 7.57422C6.57422 7.62311 6.5537 7.66121 6.53324 7.68168L5.82613 6.97457C5.49025 7.31046 5.49025 7.83798 5.82613 8.17387L6.53324 7.46676ZM6.53324 7.68168L12.1582 2.05668L11.4511 1.34957L5.82613 6.97457L6.53324 7.68168ZM9.34375 2.20312H11.8047V1.20312H9.34375V2.20312ZM8.49219 1.35156C8.49219 1.57066 8.5674 1.79209 8.73531 1.96C8.90323 2.12791 9.12466 2.20312 9.34375 2.20312V1.20312C9.3519 1.20312 9.39755 1.20803 9.44242 1.25289C9.48729 1.29776 9.49219 1.34341 9.49219 1.35156H8.49219ZM9.34375 0.5C9.12466 0.5 8.90323 0.575213 8.73531 0.743126C8.5674 0.911039 8.49219 1.13247 8.49219 1.35156H9.49219C9.49219 1.35972 9.48729 1.40537 9.44242 1.45023C9.39755 1.4951 9.3519 1.5 9.34375 1.5V0.5ZM12.6484 0.5H9.34375V1.5H12.6484V0.5ZM13.5 1.35156C13.5 1.13247 13.4248 0.911039 13.2569 0.743126C13.089 0.575213 12.8675 0.5 12.6484 0.5V1.5C12.6403 1.5 12.5946 1.4951 12.5498 1.45023C12.5049 1.40537 12.5 1.35972 12.5 1.35156H13.5ZM13.5 4.65625V1.35156H12.5V4.65625H13.5ZM12.6484 5.50781C12.8675 5.50781 13.089 5.4326 13.2569 5.26469C13.4248 5.09677 13.5 4.87534 13.5 4.65625H12.5C12.5 4.64809 12.5049 4.60245 12.5498 4.55758C12.5946 4.51271 12.6403 4.50781 12.6484 4.50781V5.50781ZM2.82812 13.5H9.85938V12.5H2.82812V13.5ZM0.5 11.1719C0.5 12.4324 1.56761 13.5 2.82812 13.5V12.5C2.11989 12.5 1.5 11.8801 1.5 11.1719H0.5ZM0.5 4.14062V11.1719H1.5V4.14062H0.5ZM2.82812 1.8125C1.56761 1.8125 0.5 2.88011 0.5 4.14062H1.5C1.5 3.43239 2.11989 2.8125 2.82812 2.8125V1.8125ZM6.0625 1.8125H2.82812V2.8125H6.0625V1.8125ZM6.91406 2.66406C6.91406 2.44497 6.83885 2.22354 6.67094 2.05563C6.50302 1.88771 6.28159 1.8125 6.0625 1.8125V2.8125C6.05434 2.8125 6.0087 2.8076 5.96383 2.76273C5.91896 2.71787 5.91406 2.67222 5.91406 2.66406H6.91406ZM6.0625 3.51562C6.27793 3.51562 6.47866 3.41914 6.62027 3.29523C6.77133 3.16305 6.91406 2.9469 6.91406 2.66406H5.91406C5.91406 2.59217 5.95132 2.55179 5.96176 2.54266C5.96774 2.53743 5.97453 2.53295 5.98445 2.52882C5.9923 2.52555 6.01841 2.51562 6.0625 2.51562V3.51562ZM2.82812 3.51562H6.0625V2.51562H2.82812V3.51562ZM2.20312 4.14062C2.20312 3.78395 2.47145 3.51562 2.82812 3.51562V2.51562C1.91917 2.51562 1.20312 3.23167 1.20312 4.14062H2.20312ZM2.20312 11.1719V4.14062H1.20312V11.1719H2.20312ZM2.82812 11.7969C2.47145 11.7969 2.20312 11.5285 2.20312 11.1719H1.20312C1.20312 12.0808 1.91917 12.7969 2.82812 12.7969V11.7969ZM9.85938 11.7969H2.82812V12.7969H9.85938V11.7969ZM10.4844 11.1719C10.4844 11.5285 10.216 11.7969 9.85938 11.7969V12.7969C10.7683 12.7969 11.4844 12.0808 11.4844 11.1719H10.4844ZM10.4844 7.65625V11.1719H11.4844V7.65625H10.4844ZM11.3359 6.80469C11.1168 6.80469 10.8954 6.8799 10.7275 7.04781C10.5596 7.21573 10.4844 7.43716 10.4844 7.65625H11.4844C11.4844 7.66441 11.4795 7.71005 11.4346 7.75492C11.3897 7.79979 11.3441 7.80469 11.3359 7.80469V6.80469ZM12.1875 7.65625C12.1875 7.43716 12.1123 7.21573 11.9444 7.04781C11.7765 6.8799 11.555 6.80469 11.3359 6.80469V7.80469C11.3278 7.80469 11.2821 7.79979 11.2373 7.75492C11.1924 7.71005 11.1875 7.66441 11.1875 7.65625H12.1875ZM12.1875 11.1719V7.65625H11.1875V11.1719H12.1875ZM9.85938 13.5C11.2027 13.5 12.1875 12.4197 12.1875 11.1719H11.1875C11.1875 11.8928 10.6254 12.5 9.85938 12.5V13.5Z" fill="#61D25F"/>
</g>
</g>
</svg>
