<svg width="29" height="29" viewBox="0 0 29 29" fill="none" xmlns="http://www.w3.org/2000/svg">
<g id="&#231;&#188;&#150;&#231;&#187;&#132; 6">
<g id="&#231;&#188;&#150;&#231;&#187;&#132; 3">
<rect id="&#231;&#159;&#169;&#229;&#189;&#162;" width="29" height="29" rx="14.5" fill="#F1F1F1"/>
</g>
<path id="&#232;&#183;&#175;&#229;&#190;&#132;" d="M19.7473 11.0132C19.4034 10.6868 18.8471 10.6902 18.5067 11.0199L12.1106 17.2034L9.27937 14.4212C8.94071 14.0881 8.38533 14.0823 8.03877 14.4045C7.69133 14.7275 7.68344 15.2594 8.02122 15.5908L11.4763 18.9862C11.4781 18.9888 11.4816 18.9888 11.4833 18.9913C11.4851 18.993 11.486 18.9963 11.4877 18.998C11.543 19.05 11.6114 19.0819 11.6763 19.1171C11.7106 19.1347 11.7378 19.1641 11.7729 19.1775C11.879 19.2195 11.9922 19.2405 12.1045 19.2405C12.2159 19.2405 12.3274 19.2195 12.4326 19.1792C12.4669 19.1658 12.4932 19.1389 12.5256 19.1222C12.5914 19.0869 12.6599 19.0559 12.716 19.003C12.7178 19.0013 12.7187 18.998 12.7213 18.9963L19.7534 12.2004C20.0947 11.8698 20.0912 11.3387 19.7473 11.0132Z" fill="black"/>
</g>
</svg>
