<svg width="30" height="30" viewBox="0 0 30 30" fill="none" xmlns="http://www.w3.org/2000/svg">
<g id="&#231;&#188;&#150;&#231;&#187;&#132;">
<circle id="&#230;&#164;&#173;&#229;&#156;&#134;&#229;&#189;&#162;" cx="15" cy="15" r="15" fill="#5FD27F" fill-opacity="0.12"/>
<g id="&#229;&#143;&#179;&#231;&#174;&#173;&#229;&#164;&#180;,&#230;&#140;&#135;&#229;&#144;&#145;&#229;&#143;&#179;&#231;&#174;&#173;&#229;&#164;&#180;">
<path id="&#229;&#189;&#162;&#231;&#138;&#182;&#231;&#187;&#147;&#229;&#144;&#136;" fill-rule="evenodd" clip-rule="evenodd" d="M17.9887 18.4496L12.6391 9.18374C12.4361 8.83221 11.9751 8.71796 11.6101 8.92872C11.245 9.13949 11.1135 9.59584 11.3164 9.94738L16.7934 19.4337L13.9841 18.6811C13.5931 18.5764 13.1901 18.809 13.0854 19.2C12.9806 19.591 13.2132 19.994 13.6042 20.0988L17.858 21.2394C18.0875 21.3009 18.3212 21.2461 18.4962 21.1113C18.7005 21.0271 18.8649 20.8521 18.9264 20.6225L20.0663 16.3684C20.1711 15.9772 19.9383 15.5742 19.5472 15.4694C19.1561 15.3646 18.753 15.5973 18.6482 15.9884L17.9887 18.4496Z" fill="#61D25F"/>
</g>
</g>
</svg>
