<svg width="30" height="30" viewBox="0 0 30 30" fill="none" xmlns="http://www.w3.org/2000/svg">
<g id="&#231;&#188;&#150;&#231;&#187;&#132;">
<circle id="&#230;&#164;&#173;&#229;&#156;&#134;&#229;&#189;&#162;" cx="15" cy="15" r="15" fill="#5FD27F" fill-opacity="0.12"/>
<g id="&#229;&#143;&#179;&#231;&#174;&#173;&#229;&#164;&#180;,&#230;&#140;&#135;&#229;&#144;&#145;&#229;&#143;&#179;&#231;&#174;&#173;&#229;&#164;&#180;">
<path id="&#229;&#189;&#162;&#231;&#138;&#182;&#231;&#187;&#147;&#229;&#144;&#136;" fill-rule="evenodd" clip-rule="evenodd" d="M17.9887 11.5504L12.6391 20.8163C12.4361 21.1678 11.9751 21.282 11.6101 21.0713C11.245 20.8605 11.1135 20.4042 11.3164 20.0526L16.7934 10.5663L13.9841 11.3189C13.5931 11.4236 13.1901 11.191 13.0854 10.8C12.9806 10.409 13.2132 10.006 13.6042 9.90124L17.858 8.76056C18.0875 8.69907 18.3212 8.75385 18.4962 8.88868C18.7005 8.97288 18.8649 9.14789 18.9264 9.37748L20.0663 13.6316C20.1711 14.0228 19.9383 14.4258 19.5472 14.5306C19.1561 14.6354 18.753 14.4027 18.6482 14.0116L17.9887 11.5504Z" fill="#61D25F"/>
</g>
</g>
</svg>
