<svg width="186" height="189" viewBox="0 0 186 189" fill="none" xmlns="http://www.w3.org/2000/svg">
<g id="Group 1476">
<g id="Frame" clip-path="url(#clip0_1855_4882)">
<g id="Clip path group">
<mask id="mask0_1855_4882" style="mask-type:luminance" maskUnits="userSpaceOnUse" x="-3" y="0" width="189" height="189">
<g id="__lottie_element_2">
<path id="Vector" d="M186 0H-3V189H186V0Z" fill="white"/>
</g>
</mask>
<g mask="url(#mask0_1855_4882)">
<g id="Group">
<g id="Group_2">
<g id="Group_3">
<path id="Vector_2" d="M135.573 152.899C103.301 177.218 57.4256 170.77 33.107 138.499C15.9872 115.78 14.1146 86.319 25.7652 62.3837" stroke="#989898" stroke-width="0.252" stroke-miterlimit="10"/>
</g>
</g>
<g id="Group_4">
<g id="Group_5">
<path id="Vector_3" d="M159.861 125.447C159.861 126.739 158.814 127.787 157.522 127.787C156.23 127.787 155.182 126.739 155.182 125.447C155.182 124.155 156.23 123.108 157.522 123.108C158.814 123.108 159.861 124.155 159.861 125.447Z" fill="#004CE9"/>
</g>
</g>
<g id="Group_6">
<g id="Group_7">
<path id="Vector_4" d="M110.982 148.629C81.0874 159.389 48.1308 143.877 37.3713 113.983C26.6116 84.0881 42.1236 51.1315 72.018 40.372C93.0632 32.7974 115.626 38.2427 130.894 52.56" stroke="#989898" stroke-width="0.252" stroke-miterlimit="10"/>
</g>
</g>
<g id="Group_8">
<g id="Group_9">
<path id="Vector_5" d="M49.3367 134.982C48.1419 135.412 46.8245 134.792 46.3946 133.598C45.9646 132.403 46.5846 131.086 47.7795 130.656C48.9742 130.225 50.2914 130.846 50.7215 132.04C51.1515 133.235 50.5316 134.552 49.3367 134.982Z" fill="#DAEF00"/>
</g>
</g>
<g id="Group_10">
<g id="Group_11">
<path id="Vector_6" d="M86.4144 153.468C85.339 153.855 84.1535 153.297 83.7665 152.221C83.3795 151.146 83.9375 149.961 85.0128 149.574C86.0881 149.186 87.2736 149.745 87.6606 150.82C88.0477 151.895 87.4897 153.081 86.4144 153.468Z" fill="#989898"/>
</g>
</g>
<g id="Group_12">
<g id="Group_13">
<path id="Vector_7" d="M139.507 95.6763C139.507 122.189 118.014 143.682 91.5014 143.682C64.9884 143.682 43.4955 122.189 43.4955 95.6763C43.4955 69.1634 64.9884 47.6704 91.5014 47.6704C118.014 47.6704 139.507 69.1634 139.507 95.6763Z" fill="#61D25F"/>
</g>
<g id="Group_14">
<path id="Vector_8" d="M130.829 95.6769C130.829 117.398 113.221 135.006 91.5007 135.006C69.78 135.006 52.1717 117.398 52.1717 95.6769C52.1717 73.9563 69.78 56.3481 91.5007 56.3481C113.221 56.3481 130.829 73.9563 130.829 95.6769Z" stroke="black" stroke-width="0.252" stroke-miterlimit="10"/>
</g>
</g>
<g id="Group_15">
<g id="Group_16">
<path id="Aber deen" d="M67.095 79.5525H73.479L77.658 94.0005H72.723L72.177 91.2285H68.439L67.83 94.0005H63.105L67.095 79.5525ZM71.673 88.6455L70.308 82.3245L68.88 88.6455H71.673ZM84.5086 94.2525C83.6406 94.2525 82.8356 94.2385 82.0936 94.2105C81.3516 94.1825 80.3366 94.1195 79.0486 94.0215V79.5525H86.2726C87.2946 79.5525 88.2116 79.6995 89.0236 79.9935C89.8496 80.2735 90.4936 80.6795 90.9556 81.2115C91.4176 81.7435 91.6486 82.3595 91.6486 83.0595C91.6486 83.9275 91.4596 84.6135 91.0816 85.1175C90.7036 85.6075 90.1296 85.9505 89.3596 86.1465C91.3196 86.4545 92.2996 87.6095 92.2996 89.6115C92.2996 90.9975 91.6626 92.1175 90.3886 92.9715C89.1286 93.8255 87.1686 94.2525 84.5086 94.2525ZM85.3906 85.2645C85.9366 85.2645 86.3846 85.1315 86.7346 84.8655C87.0986 84.5995 87.2806 84.2565 87.2806 83.8365C87.2806 82.8425 86.6646 82.3455 85.4326 82.3455H83.7316V85.2645H85.3906ZM85.3066 90.9555C86.0766 90.9555 86.6646 90.8155 87.0706 90.5355C87.4906 90.2415 87.7006 89.8355 87.7006 89.3175C87.7006 88.7575 87.5116 88.3305 87.1336 88.0365C86.7556 87.7285 86.2166 87.5745 85.5166 87.5745H83.7106V90.8925C84.3406 90.9345 84.8726 90.9555 85.3066 90.9555ZM94.1834 79.5525H104.326V82.7445H99.2864V85.3695H103.885V88.0155H99.2864V90.8085H104.326V94.0005H94.1834V79.5525ZM117.614 94.3365C114.982 94.3365 113.372 93.1185 112.784 90.6825L112.259 88.5195H111.272V94.0005H106.673V79.5525H113.036C114.24 79.5525 115.297 79.7345 116.207 80.0985C117.131 80.4485 117.845 80.9455 118.349 81.5895C118.853 82.2335 119.105 82.9755 119.105 83.8155C119.105 84.7535 118.874 85.5445 118.412 86.1885C117.964 86.8185 117.264 87.3365 116.312 87.7425C116.41 88.2745 116.522 88.7575 116.648 89.1915C116.816 89.7235 117.047 90.0945 117.341 90.3045C117.635 90.5145 118.062 90.6195 118.622 90.6195C118.818 90.6195 119.126 90.5915 119.546 90.5355V93.9585C118.888 94.2105 118.244 94.3365 117.614 94.3365ZM112.07 85.5795C113.106 85.5795 113.834 85.4675 114.254 85.2435C114.688 85.0055 114.905 84.6065 114.905 84.0465C114.905 83.5705 114.73 83.2275 114.38 83.0175C114.03 82.7935 113.477 82.6815 112.721 82.6815H111.272V85.5795H112.07ZM64.365 98.5525H70.644C72.156 98.5525 73.493 98.8535 74.655 99.4555C75.831 100.057 76.741 100.897 77.385 101.975C78.043 103.053 78.372 104.285 78.372 105.671C78.372 107.127 78.05 108.408 77.406 109.514C76.776 110.62 75.873 111.481 74.697 112.097C73.535 112.699 72.184 113 70.644 113H64.365V98.5525ZM70.434 109.22C71.484 109.22 72.282 108.891 72.828 108.233C73.388 107.561 73.668 106.693 73.668 105.629C73.668 104.621 73.395 103.823 72.849 103.235C72.317 102.633 71.512 102.332 70.434 102.332H69.006V109.22H70.434ZM80.4021 98.5525H90.5451V101.744H85.5051V104.369H90.1041V107.015H85.5051V109.808H90.5451V113H80.4021V98.5525ZM92.8914 98.5525H103.034V101.744H97.9944V104.369H102.593V107.015H97.9944V109.808H103.034V113H92.8914V98.5525ZM105.381 98.5525H109.602L115.356 106.343V98.5525H119.115V113H114.915L109.119 105.482V113H105.381V98.5525Z" fill="black"/>
</g>
</g>
<g id="Mask group">
<mask id="mask1_1855_4882" style="mask-type:alpha" maskUnits="userSpaceOnUse" x="43" y="47" width="97" height="97">
<g id="Group_17">
<g id="Group_18">
<g id="Group_19">
<path id="Vector_9" d="M139.507 95.6763C139.507 122.189 118.014 143.682 91.5009 143.682C64.9879 143.682 43.495 122.189 43.495 95.6763C43.495 69.1634 64.9879 47.6704 91.5009 47.6704C118.014 47.6704 139.507 69.1634 139.507 95.6763Z" fill="#DAEF00"/>
</g>
<g id="Group_20">
<path id="Vector_10" d="M130.829 95.6769C130.829 117.398 113.221 135.006 91.5003 135.006C69.7795 135.006 52.1712 117.398 52.1712 95.6769C52.1712 73.9563 69.7795 56.3481 91.5003 56.3481C113.221 56.3481 130.829 73.9563 130.829 95.6769Z" stroke="black" stroke-width="0.252" stroke-miterlimit="10"/>
</g>
</g>
</g>
</mask>
<g mask="url(#mask1_1855_4882)">
<g id="Group_21">
<g id="Group_22" opacity="0.82">
<g id="Group_23">
<path id="Vector_11" d="M85.9896 18.6291L139.493 138.801L127.522 144.13L74.0185 23.959L85.9896 18.6291Z" fill="white"/>
</g>
<g id="Group_24">
<path id="Vector_12" d="M94.7129 15.0917L148.217 135.263L142.992 137.589L89.488 17.418L94.7129 15.0917Z" fill="white"/>
</g>
</g>
</g>
</g>
</g>
</g>
</g>
</g>
</g>
</g>
<defs>
<clipPath id="clip0_1855_4882">
<rect width="189" height="189" fill="white" transform="translate(-3)"/>
</clipPath>
</defs>
</svg>
