<svg width="12" height="12" viewBox="0 0 12 12" fill="none" xmlns="http://www.w3.org/2000/svg">
<g id="Group 1305">
<circle id="Ellipse 91" cx="6" cy="6" r="6" fill="#BCBCBC"/>
<g id="&#231;&#188;&#150;&#231;&#187;&#132; 6">
<g id="cha">
<path id="&#232;&#183;&#175;&#229;&#190;&#132;" d="M6.7046 6.01033L8.825 8.13032C8.95146 8.257 9.00072 8.44151 8.95425 8.61437C8.90777 8.78722 8.77261 8.92214 8.59968 8.96832C8.42674 9.01449 8.24231 8.9649 8.11586 8.83823L5.99545 6.71782L3.861 8.85228C3.66403 9.04924 3.34469 9.04924 3.14772 8.85228C2.95076 8.65531 2.95076 8.33597 3.14772 8.139L5.28259 6.00413L3.16219 3.88373C2.97563 3.68692 2.97977 3.37733 3.17153 3.18558C3.36328 2.99382 3.67287 2.98968 3.86968 3.17624L5.99008 5.29664L8.139 3.14772C8.33597 2.95076 8.65531 2.95076 8.85228 3.14772C9.04924 3.34469 9.04924 3.66403 8.85228 3.861L6.7046 6.01033Z" fill="white" stroke="white" stroke-width="0.5"/>
</g>
</g>
</g>
</svg>
