<svg width="16" height="16" viewBox="0 0 16 16" fill="none" xmlns="http://www.w3.org/2000/svg">
<g id="vuesax/linear/eye-slash">
<g id="vuesax/linear/eye-slash_2">
<g id="eye-slash">
<path id="Vector" d="M9.68667 6.31328L6.31333 9.68661C5.88 9.25328 5.61333 8.65995 5.61333 7.99995C5.61333 6.67995 6.68 5.61328 8 5.61328C8.66 5.61328 9.25333 5.87995 9.68667 6.31328Z" stroke="black" stroke-linecap="round" stroke-linejoin="round"/>
<path id="Vector_2" d="M11.88 3.84682C10.7133 2.96682 9.38 2.48682 8 2.48682C5.64667 2.48682 3.45333 3.87348 1.92667 6.27348C1.32667 7.21348 1.32667 8.79348 1.92667 9.73348C2.45333 10.5602 3.06667 11.2735 3.73333 11.8468" stroke="black" stroke-linecap="round" stroke-linejoin="round"/>
<path id="Vector_3" d="M5.61333 13.02C6.37333 13.34 7.18 13.5133 8 13.5133C10.3533 13.5133 12.5467 12.1266 14.0733 9.72662C14.6733 8.78662 14.6733 7.20662 14.0733 6.26662C13.8533 5.91995 13.6133 5.59329 13.3667 5.28662" stroke="black" stroke-linecap="round" stroke-linejoin="round"/>
<path id="Vector_4" d="M10.34 8.4668C10.1667 9.4068 9.4 10.1735 8.46 10.3468" stroke="black" stroke-linecap="round" stroke-linejoin="round"/>
<path id="Vector_5" d="M6.31333 9.68652L1.33333 14.6665" stroke="black" stroke-linecap="round" stroke-linejoin="round"/>
<path id="Vector_6" d="M14.6667 1.3335L9.68667 6.3135" stroke="black" stroke-linecap="round" stroke-linejoin="round"/>
</g>
</g>
</g>
</svg>
