<svg width="19" height="19" viewBox="0 0 19 19" fill="none" xmlns="http://www.w3.org/2000/svg">
<g id="vuesax/linear/eye">
<g id="vuesax/linear/eye-slash">
<g id="vuesax/linear/eye_2">
<g id="eye">
<path id="Vector" d="M12.3342 9.50018C12.3342 11.0677 11.0676 12.3343 9.50006 12.3343C7.93256 12.3343 6.66589 11.0677 6.66589 9.50018C6.66589 7.93268 7.93256 6.66602 9.50006 6.66602C11.0676 6.66602 12.3342 7.93268 12.3342 9.50018Z" stroke="black" stroke-width="1.1875" stroke-linecap="round" stroke-linejoin="round"/>
<path id="Vector_2" d="M9.5 16.0474C12.2946 16.0474 14.8992 14.4007 16.7121 11.5507C17.4246 10.4345 17.4246 8.55823 16.7121 7.44198C14.8992 4.59198 12.2946 2.94531 9.5 2.94531C6.70542 2.94531 4.10083 4.59198 2.28792 7.44198C1.57542 8.55823 1.57542 10.4345 2.28792 11.5507C4.10083 14.4007 6.70542 16.0474 9.5 16.0474Z" stroke="black" stroke-width="1.1875" stroke-linecap="round" stroke-linejoin="round"/>
</g>
</g>
</g>
</g>
</svg>
