<svg width="13" height="13" viewBox="0 0 13 13" fill="none" xmlns="http://www.w3.org/2000/svg">
<g id="&#231;&#188;&#150;&#231;&#187;&#132; 6">
<g id="cha">
<path id="&#232;&#183;&#175;&#229;&#190;&#132;" d="M8.02663 6.52238L12.6208 11.1157C12.8948 11.3902 13.0016 11.7899 12.9009 12.1645C12.8002 12.539 12.5073 12.8313 12.1326 12.9314C11.7579 13.0314 11.3583 12.924 11.0844 12.6495L6.49015 8.05528L1.8655 12.6799C1.43874 13.1067 0.746828 13.1067 0.320069 12.6799C-0.10669 12.2532 -0.10669 11.5613 0.320069 11.1345L4.94562 6.50895L0.351407 1.91475C-0.0527939 1.48832 -0.0438223 0.817544 0.371639 0.402082C0.787101 -0.0133793 1.45788 -0.0223509 1.8843 0.38185L6.47851 4.97606L11.1345 0.320069C11.5613 -0.10669 12.2532 -0.10669 12.6799 0.320069C13.1067 0.746828 13.1067 1.43874 12.6799 1.8655L8.02663 6.52238Z" fill="#C0C0C0"/>
</g>
</g>
</svg>
