<svg width="263" height="147" viewBox="0 0 263 147" fill="none" xmlns="http://www.w3.org/2000/svg">
<g id="Group 1533209163">
<path id="Union" fill-rule="evenodd" clip-rule="evenodd" d="M82.4111 46.3564C82.4111 20.7536 103.166 0 128.768 0C154.369 0 175.123 20.7536 175.123 46.3564C175.123 71.9568 154.369 92.7123 128.767 92.7123C103.166 92.7123 82.4111 71.9568 82.4111 46.3564Z" fill="#E38D4F"/>
<g id="Group 832">
<g id="Group 821">
<g id="Group 813">
<circle id="Ellipse 12" cx="10.3014" cy="72.1107" r="10.3014" fill="#F5CEAB"/>
<circle id="Ellipse 18" cx="183.708" cy="70.394" r="12.0183" fill="#A67388"/>
<circle id="Ellipse 21" cx="226.63" cy="70.394" r="12.0183" fill="#966B85"/>
<circle id="Ellipse 22" cx="248.092" cy="60.9505" r="14.5936" fill="#6F5780"/>
<circle id="Ellipse 20" cx="142.503" cy="87.562" r="12.0183" fill="#E6BB90"/>
<circle id="Ellipse 19" cx="207.744" cy="66.9593" r="13.7352" fill="#AF6C86"/>
<circle id="Ellipse 16" cx="124.474" cy="88.4204" r="12.8767" fill="#E6BB90"/>
<circle id="Ellipse 17" cx="165.681" cy="79.8367" r="18.0274" fill="#E3A98A"/>
<circle id="Ellipse 14" cx="75.543" cy="72.1099" r="17.1689" fill="#F5CC9D"/>
<circle id="Ellipse 15" cx="96.1465" cy="87.5623" r="17.1689" fill="#E6BB90"/>
<circle id="Ellipse 13" cx="40.347" cy="69.535" r="23.1781" fill="#F5DDA3"/>
</g>
<g id="Group 816">
<path id="Union_2" fill-rule="evenodd" clip-rule="evenodd" d="M241.074 93.0856C247.711 93.0856 253.092 87.7048 253.092 81.0673C253.092 74.4298 247.711 69.0491 241.074 69.0491C235.515 69.0491 230.838 72.823 229.464 77.9485C226.528 75.6022 222.805 74.1994 218.754 74.1994C212.917 74.1994 207.76 77.1127 204.658 81.5646C203.348 76.3464 198.626 72.4826 193.001 72.4826C187.29 72.4826 182.509 76.4661 181.286 81.8062C179.841 81.3272 178.296 81.0679 176.691 81.0679C170.33 81.0679 164.921 85.1364 162.922 90.8128C159.615 86.9498 154.704 84.5015 149.22 84.5015C140.08 84.5015 132.528 91.304 131.352 100.123C128.786 97.8787 125.427 96.519 121.75 96.519C116.33 96.519 111.6 99.4735 109.083 103.86C104.913 90.6472 92.5599 81.0679 77.9691 81.0679C72.1479 81.0679 66.6828 82.5927 61.9514 85.2647C60.0128 77.9077 53.3139 72.4826 45.348 72.4826C38.7094 72.4826 32.9508 76.2505 30.094 81.7643C27.5244 80.2317 24.5208 79.3511 21.3115 79.3511C11.8294 79.3511 4.14258 87.0379 4.14258 96.5201C4.14258 106.002 11.8294 113.689 21.3115 113.689C27.9502 113.689 33.7088 109.921 36.5656 104.407C39.1351 105.94 42.1387 106.821 45.348 106.821C45.5918 106.821 45.8344 106.815 46.0757 106.805C45.5991 109.024 45.3481 111.327 45.3481 113.689C45.3481 131.705 59.953 146.31 77.9691 146.31C93.898 146.31 107.16 134.893 110.019 119.796C112.678 123.382 116.943 125.706 121.75 125.706C128.579 125.706 134.312 121.016 135.904 114.681C139.201 118.291 143.946 120.556 149.22 120.556C157.841 120.556 165.049 114.505 166.827 106.417C169.424 108.801 172.888 110.255 176.691 110.255C184.504 110.255 190.884 104.114 191.266 96.3949C191.833 96.4768 192.412 96.5192 193.001 96.5192C196.396 96.5192 199.463 95.1112 201.648 92.8473C202.398 101.637 209.771 108.537 218.754 108.537C228.05 108.537 235.621 101.149 235.915 91.9249C237.478 92.6691 239.227 93.0856 241.074 93.0856Z" fill="white"/>
</g>
</g>
</g>
<path id="Vector" d="M143.704 25C144.42 25 145 25.5749 145 26.2841C145 26.9831 144.436 27.5516 143.735 27.5677L143.704 27.5681H138.965V34.2626L138.964 34.3196C138.956 34.9983 138.801 35.6674 138.509 36.2816C138.217 36.8958 137.795 37.4409 137.272 37.8799L137.24 37.9067L130.577 43.4004L137.396 49.0228C137.929 49.4618 138.358 50.0098 138.656 50.6291C138.954 51.2484 139.112 51.9242 139.12 52.6099L139.121 52.6669V59.4319H143.704C144.42 59.4319 145 60.0068 145 60.7159C145 61.415 144.436 61.9836 143.735 61.9997L143.704 62H113.296C112.58 62 112 61.4251 112 60.7159C112 60.0169 112.564 59.4484 113.265 59.4323L113.296 59.4319L117.982 59.4319V52.6669L117.982 52.6098C117.99 51.9311 118.146 51.262 118.438 50.6478C118.729 50.0336 119.151 49.4886 119.674 49.0495L119.706 49.0227L126.525 43.4004L119.862 37.9067C119.33 37.4677 118.9 36.9197 118.603 36.3004C118.305 35.6811 118.147 35.0053 118.138 34.3196L118.138 34.2626L118.138 27.5681H113.296C112.58 27.5681 112 26.9932 112 26.2841C112 25.585 112.564 25.0164 113.265 25.0003L113.296 25H143.704ZM136.372 27.5681H120.73V34.2626C120.73 34.5742 120.798 34.8822 120.928 35.1657C121.059 35.4492 121.25 35.7015 121.488 35.9056L121.52 35.9328L128.551 41.7298L135.582 35.9328L135.614 35.9056C135.849 35.7043 136.038 35.4561 136.169 35.1773C136.299 34.8985 136.369 34.5955 136.372 34.2882L136.372 34.2626V27.5681Z" fill="white"/>
</g>
</svg>
