<svg width="263" height="147" viewBox="0 0 263 147" fill="none" xmlns="http://www.w3.org/2000/svg">
<g id="Group 1533209164">
<path id="Union" fill-rule="evenodd" clip-rule="evenodd" d="M82.4111 46.3564C82.4111 20.7536 103.166 0 128.768 0C154.369 0 175.123 20.7536 175.123 46.3564C175.123 71.9568 154.369 92.7123 128.767 92.7123C103.166 92.7123 82.4111 71.9568 82.4111 46.3564Z" fill="#E34F72"/>
<path id="Union_2" fill-rule="evenodd" clip-rule="evenodd" d="M147.643 32.2678C148.62 31.2915 148.62 29.7085 147.643 28.7322C146.667 27.7559 145.084 27.7559 144.108 28.7322L129.642 43.1987L115.473 29.0306C114.497 28.0543 112.914 28.0543 111.938 29.0306C110.962 30.0069 110.962 31.5898 111.938 32.5661L126.106 46.7342L110.732 62.108C109.756 63.0843 109.756 64.6672 110.732 65.6435C111.709 66.6198 113.291 66.6198 114.268 65.6435L129.642 50.2698L145.314 65.9418C146.29 66.9182 147.873 66.9182 148.849 65.9418C149.825 64.9655 149.825 63.3826 148.849 62.4063L133.177 46.7342L147.643 32.2678Z" fill="white"/>
<g id="Group 831">
<g id="Group 821">
<g id="Group 813">
<circle id="Ellipse 12" cx="10.3014" cy="72.1107" r="10.3014" fill="#F5CEAB"/>
<circle id="Ellipse 18" cx="183.708" cy="70.394" r="12.0183" fill="#A67388"/>
<circle id="Ellipse 21" cx="226.63" cy="70.394" r="12.0183" fill="#966B85"/>
<circle id="Ellipse 22" cx="248.092" cy="60.9505" r="14.5936" fill="#6F5780"/>
<circle id="Ellipse 20" cx="142.503" cy="87.562" r="12.0183" fill="#E6BB90"/>
<circle id="Ellipse 19" cx="207.744" cy="66.9593" r="13.7352" fill="#AF6C86"/>
<circle id="Ellipse 16" cx="124.474" cy="88.4204" r="12.8767" fill="#E6BB90"/>
<circle id="Ellipse 17" cx="165.681" cy="79.8367" r="18.0274" fill="#E3A98A"/>
<circle id="Ellipse 14" cx="75.543" cy="72.1099" r="17.1689" fill="#F5CC9D"/>
<circle id="Ellipse 15" cx="96.1465" cy="87.5623" r="17.1689" fill="#E6BB90"/>
<circle id="Ellipse 13" cx="40.347" cy="69.535" r="23.1781" fill="#F5DDA3"/>
</g>
<g id="Group 816">
<path id="Union_3" fill-rule="evenodd" clip-rule="evenodd" d="M241.074 93.0853C247.711 93.0853 253.092 87.7046 253.092 81.0671C253.092 74.4296 247.711 69.0488 241.074 69.0488C235.515 69.0488 230.838 72.8228 229.464 77.9483C226.528 75.602 222.805 74.1992 218.754 74.1992C212.917 74.1992 207.76 77.1124 204.658 81.5644C203.348 76.3462 198.626 72.4824 193.001 72.4824C187.29 72.4824 182.509 76.4659 181.286 81.8059C179.841 81.327 178.296 81.0677 176.691 81.0677C170.33 81.0677 164.921 85.1362 162.922 90.8126C159.615 86.9495 154.704 84.5012 149.22 84.5012C140.08 84.5012 132.528 91.3038 131.352 100.122C128.786 97.8784 125.427 96.5187 121.75 96.5187C116.33 96.5187 111.6 99.4733 109.083 103.86C104.913 90.647 92.5599 81.0677 77.9691 81.0677C72.1479 81.0677 66.6828 82.5925 61.9514 85.2644C60.0128 77.9074 53.3139 72.4824 45.348 72.4824C38.7094 72.4824 32.9508 76.2502 30.094 81.7641C27.5244 80.2314 24.5208 79.3509 21.3115 79.3509C11.8294 79.3509 4.14258 87.0377 4.14258 96.5198C4.14258 106.002 11.8294 113.689 21.3115 113.689C27.9502 113.689 33.7088 109.921 36.5656 104.407C39.1351 105.94 42.1387 106.82 45.348 106.82C45.5918 106.82 45.8344 106.815 46.0757 106.805C45.5991 109.024 45.3481 111.327 45.3481 113.689C45.3481 131.705 59.953 146.31 77.9691 146.31C93.898 146.31 107.16 134.893 110.019 119.796C112.678 123.382 116.943 125.706 121.75 125.706C128.579 125.706 134.312 121.016 135.904 114.681C139.201 118.291 143.946 120.556 149.22 120.556C157.841 120.556 165.049 114.504 166.827 106.417C169.424 108.8 172.888 110.255 176.691 110.255C184.504 110.255 190.884 104.114 191.266 96.3946C191.833 96.4765 192.412 96.5189 193.001 96.5189C196.396 96.5189 199.463 95.111 201.648 92.8471C202.398 101.637 209.771 108.537 218.754 108.537C228.05 108.537 235.621 101.149 235.915 91.9246C237.478 92.6688 239.227 93.0853 241.074 93.0853Z" fill="white"/>
</g>
</g>
</g>
</g>
</svg>
