<svg width="263" height="147" viewBox="0 0 263 147" fill="none" xmlns="http://www.w3.org/2000/svg">
<g id="Group 1533209165">
<g id="Group 830">
<g id="Group 821">
<g id="Group 817">
<ellipse id="Ellipse 24" cx="131.343" cy="44.6395" rx="33.4794" ry="27.4703" fill="white"/>
<path id="Vector" d="M128.768 0C103.166 0 82.4111 20.7536 82.4111 46.3564C82.4111 71.9568 103.166 92.7123 128.767 92.7123C154.369 92.7123 175.123 71.9568 175.123 46.3564C175.123 20.7536 154.369 0 128.768 0H128.768ZM153.616 34.1194L124.772 62.9632C124.485 63.2502 124.144 63.4779 123.769 63.6332C123.394 63.7886 122.993 63.8685 122.587 63.8685C122.181 63.8685 121.779 63.7886 121.404 63.6332C121.029 63.4779 120.689 63.2502 120.402 62.9632L105.98 48.5413C105.693 48.2544 105.465 47.9138 105.31 47.5389C105.155 47.164 105.075 46.7622 105.075 46.3564C105.075 45.9506 105.155 45.5488 105.31 45.1739C105.465 44.799 105.693 44.4584 105.98 44.1714C106.267 43.8845 106.608 43.6568 106.982 43.5015C107.357 43.3462 107.759 43.2663 108.165 43.2663C108.571 43.2663 108.973 43.3462 109.348 43.5015C109.723 43.6568 110.063 43.8845 110.35 44.1714L122.587 56.4079L149.246 29.7491C149.533 29.4621 149.873 29.2345 150.248 29.0792C150.623 28.9239 151.025 28.8439 151.431 28.8439C151.837 28.8439 152.239 28.9239 152.614 29.0792C152.989 29.2345 153.329 29.4621 153.616 29.7491C153.903 30.036 154.131 30.3767 154.286 30.7516C154.441 31.1266 154.521 31.5284 154.521 31.9342C154.521 32.3401 154.441 32.7419 154.286 33.1169C154.131 33.4918 153.903 33.8325 153.616 34.1194Z" fill="#61D25F"/>
</g>
<g id="Group 813">
<circle id="Ellipse 12" cx="10.3014" cy="72.1107" r="10.3014" fill="#F5CEAB"/>
<circle id="Ellipse 18" cx="183.708" cy="70.394" r="12.0183" fill="#A67388"/>
<circle id="Ellipse 21" cx="226.63" cy="70.394" r="12.0183" fill="#966B85"/>
<circle id="Ellipse 22" cx="248.092" cy="60.9505" r="14.5936" fill="#6F5780"/>
<circle id="Ellipse 20" cx="142.503" cy="87.562" r="12.0183" fill="#E6BB90"/>
<circle id="Ellipse 19" cx="207.744" cy="66.9593" r="13.7352" fill="#AF6C86"/>
<circle id="Ellipse 16" cx="124.474" cy="88.4204" r="12.8767" fill="#E6BB90"/>
<circle id="Ellipse 17" cx="165.681" cy="79.8367" r="18.0274" fill="#E3A98A"/>
<circle id="Ellipse 14" cx="75.543" cy="72.1099" r="17.1689" fill="#F5CC9D"/>
<circle id="Ellipse 15" cx="96.1465" cy="87.5623" r="17.1689" fill="#E6BB90"/>
<circle id="Ellipse 13" cx="40.347" cy="69.535" r="23.1781" fill="#F5DDA3"/>
</g>
<g id="Group 816">
<path id="Union" fill-rule="evenodd" clip-rule="evenodd" d="M241.074 93.0856C247.711 93.0856 253.092 87.7048 253.092 81.0673C253.092 74.4298 247.711 69.0491 241.074 69.0491C235.515 69.0491 230.838 72.823 229.464 77.9485C226.528 75.6022 222.805 74.1994 218.754 74.1994C212.917 74.1994 207.76 77.1127 204.658 81.5646C203.348 76.3464 198.626 72.4826 193.001 72.4826C187.29 72.4826 182.509 76.4661 181.286 81.8062C179.841 81.3272 178.296 81.0679 176.691 81.0679C170.33 81.0679 164.921 85.1364 162.922 90.8128C159.615 86.9498 154.704 84.5015 149.22 84.5015C140.08 84.5015 132.528 91.304 131.352 100.123C128.786 97.8787 125.427 96.519 121.75 96.519C116.33 96.519 111.6 99.4735 109.083 103.86C104.913 90.6472 92.5599 81.0679 77.9691 81.0679C72.1479 81.0679 66.6828 82.5927 61.9514 85.2647C60.0128 77.9077 53.3139 72.4826 45.348 72.4826C38.7094 72.4826 32.9508 76.2505 30.094 81.7643C27.5244 80.2317 24.5208 79.3511 21.3115 79.3511C11.8294 79.3511 4.14258 87.0379 4.14258 96.5201C4.14258 106.002 11.8294 113.689 21.3115 113.689C27.9502 113.689 33.7088 109.921 36.5656 104.407C39.1351 105.94 42.1387 106.821 45.348 106.821C45.5918 106.821 45.8344 106.815 46.0757 106.805C45.5991 109.024 45.3481 111.327 45.3481 113.689C45.3481 131.705 59.953 146.31 77.9691 146.31C93.898 146.31 107.16 134.893 110.019 119.796C112.678 123.382 116.943 125.706 121.75 125.706C128.579 125.706 134.312 121.016 135.904 114.681C139.201 118.291 143.946 120.556 149.22 120.556C157.841 120.556 165.049 114.505 166.827 106.417C169.424 108.801 172.888 110.255 176.691 110.255C184.504 110.255 190.884 104.114 191.266 96.3949C191.833 96.4768 192.412 96.5192 193.001 96.5192C196.396 96.5192 199.463 95.1112 201.648 92.8473C202.398 101.637 209.771 108.537 218.754 108.537C228.05 108.537 235.621 101.149 235.915 91.9249C237.478 92.6691 239.227 93.0856 241.074 93.0856Z" fill="white"/>
</g>
</g>
</g>
</g>
</svg>
