<svg width="40" height="40" viewBox="0 0 40 40" fill="none" xmlns="http://www.w3.org/2000/svg">
<g id="Component / Elements">
<g id="Component 3" filter="url(#filter0_b_2047_2086)">
<rect width="40" height="40" rx="20" fill="black" fill-opacity="0.3"/>
<g id="menu-1 1">
<g id="Group">
<g id="Group_2">
<path id="Vector" opacity="0.4" d="M25.5401 16.8099C25.9288 16.8099 26.3137 16.7333 26.6728 16.5846C27.0319 16.4358 27.3583 16.2178 27.6331 15.9429C27.908 15.6681 28.126 15.3418 28.2748 14.9826C28.4235 14.6235 28.5001 14.2386 28.5001 13.8499C28.5001 13.4612 28.4235 13.0763 28.2748 12.7171C28.126 12.358 27.908 12.0317 27.6331 11.7569C27.3583 11.482 27.0319 11.264 26.6728 11.1152C26.3137 10.9665 25.9288 10.8899 25.5401 10.8899C24.755 10.8899 24.0022 11.2017 23.447 11.7569C22.8919 12.312 22.5801 13.0649 22.5801 13.8499C22.5801 14.6349 22.8919 15.3878 23.447 15.9429C24.0022 16.498 24.755 16.8099 25.5401 16.8099Z" fill="white"/>
<path id="Vector_2" d="M14.46 16.8099C14.8487 16.8099 15.2336 16.7333 15.5927 16.5846C15.9519 16.4358 16.2782 16.2178 16.553 15.9429C16.8279 15.6681 17.0459 15.3418 17.1947 14.9826C17.3434 14.6235 17.42 14.2386 17.42 13.8499C17.42 13.4612 17.3434 13.0763 17.1947 12.7171C17.0459 12.358 16.8279 12.0317 16.553 11.7569C16.2782 11.482 15.9519 11.264 15.5927 11.1152C15.2336 10.9665 14.8487 10.8899 14.46 10.8899C13.675 10.8899 12.9221 11.2017 12.367 11.7569C11.8119 12.312 11.5 13.0649 11.5 13.8499C11.5 14.6349 11.8119 15.3878 12.367 15.9429C12.9221 16.498 13.675 16.8099 14.46 16.8099V16.8099Z" fill="white"/>
<path id="Vector_3" d="M25.5401 29.1099C26.3251 29.1099 27.078 28.7981 27.6331 28.243C28.1882 27.6879 28.5001 26.935 28.5001 26.1499C28.5001 25.3649 28.1882 24.612 27.6331 24.0569C27.078 23.5018 26.3251 23.1899 25.5401 23.1899C24.755 23.1899 24.0022 23.5018 23.447 24.0569C22.8919 24.612 22.5801 25.3649 22.5801 26.1499C22.5801 26.935 22.8919 27.6879 23.447 28.243C24.0022 28.7981 24.755 29.1099 25.5401 29.1099V29.1099Z" fill="white"/>
<path id="Vector_4" opacity="0.4" d="M14.46 29.1099C15.245 29.1099 15.9979 28.7981 16.553 28.243C17.1081 27.6879 17.42 26.935 17.42 26.1499C17.42 25.3649 17.1081 24.612 16.553 24.0569C15.9979 23.5018 15.245 23.1899 14.46 23.1899C13.675 23.1899 12.9221 23.5018 12.367 24.0569C11.8119 24.612 11.5 25.3649 11.5 26.1499C11.5 26.935 11.8119 27.6879 12.367 28.243C12.9221 28.7981 13.675 29.1099 14.46 29.1099V29.1099Z" fill="white"/>
</g>
</g>
</g>
</g>
</g>
<defs>
<filter id="filter0_b_2047_2086" x="-31" y="-31" width="102" height="102" filterUnits="userSpaceOnUse" color-interpolation-filters="sRGB">
<feFlood flood-opacity="0" result="BackgroundImageFix"/>
<feGaussianBlur in="BackgroundImageFix" stdDeviation="15.5"/>
<feComposite in2="SourceAlpha" operator="in" result="effect1_backgroundBlur_2047_2086"/>
<feBlend mode="normal" in="SourceGraphic" in2="effect1_backgroundBlur_2047_2086" result="shape"/>
</filter>
</defs>
</svg>
