<svg width="21" height="21" viewBox="0 0 21 21" fill="none" xmlns="http://www.w3.org/2000/svg">
<g id="Component 10">
<g clip-path="url(#clip0_1876_56)">
<path id="Vector" d="M0 0H20.1711V20.1711H0V0Z" fill="#012169"/>
<path id="Vector_2" d="M20.1711 0V2.52139L12.6858 10.0856L20.1711 17.4528V20.1711H17.5316L10.0068 12.7646L2.67898 20.1711H0V17.4922L7.3278 10.125L0 2.91536V0H2.4426L10.0068 7.40659L17.3346 0H20.1711Z" fill="white"/>
<path id="Vector_3" d="M7.24901 12.7646L7.68237 14.104L1.65466 20.1711H0V20.053L7.24901 12.7646ZM12.1342 12.2918L14.2616 12.607L20.1711 18.3983V20.1711L12.1342 12.2918ZM20.1711 0L12.607 7.72177L12.4494 5.98831L18.3589 0H20.1711ZM0 0.0393968L7.60358 7.48539L5.27917 7.17021L0 1.93044V0.0393968Z" fill="#C8102E"/>
<path id="Vector_4" d="M6.93383 0V20.1711H13.2373V0H6.93383ZM0 6.93383V13.2373H20.1711V6.93383H0Z" fill="white"/>
<path id="Vector_5" d="M0 8.19453V11.9766H20.1711V8.19453H0ZM8.19453 0V20.1711H11.9766V0H8.19453Z" fill="#C8102E"/>
</g>
</g>
<defs>
<clipPath id="clip0_1876_56">
<rect width="20.1711" height="20.1711" rx="9.7704" fill="white"/>
</clipPath>
</defs>
</svg>
