<svg width="33" height="33" viewBox="0 0 33 33" fill="none" xmlns="http://www.w3.org/2000/svg">
<g id="Component 10">
<g clip-path="url(#clip0_2047_1718)">
<path id="Vector" d="M0 0.238037H32.0476V32.2857H0V0.238037Z" fill="#DE2910"/>
<path id="Vector_2" d="M12.8189 6.80787L4.64673 12.0957L8.01173 3.44287L10.896 12.0957L3.20459 6.80787H12.8189Z" fill="#FFDE00"/>
<path id="Vector_3" d="M14.8079 2.30668L17.7198 3.73286L14.6719 4.25657L16.6477 1.94851L16.4574 5.05184L14.8079 2.30668Z" fill="#FFDE00"/>
<path id="Vector_4" d="M18.5193 5.13328L20.6481 7.58179L17.6346 6.87772L20.3546 5.51948L18.9708 8.30607L18.5193 5.13328Z" fill="#FFDE00"/>
<path id="Vector_5" d="M19.1892 9.78542L20.1332 12.8915L17.6685 11.0172L20.7077 10.888L18.3054 12.8677L19.1892 9.78542Z" fill="#FFDE00"/>
<path id="Vector_6" d="M16.6503 13.109L16.3227 16.3354L14.7739 13.6579L17.6246 14.7106L14.6474 15.6088L16.6503 13.109Z" fill="#FFDE00"/>
</g>
</g>
<defs>
<clipPath id="clip0_2047_1718">
<rect y="0.238037" width="32.0476" height="32.0476" rx="16.0238" fill="white"/>
</clipPath>
</defs>
</svg>
