<svg width="21" height="21" viewBox="0 0 21 21" fill="none" xmlns="http://www.w3.org/2000/svg">
<g id="Component 10">
<g clip-path="url(#clip0_1876_862)">
<path id="Vector" fill-rule="evenodd" clip-rule="evenodd" d="M0 0H20.1711V20.1711H0V0Z" fill="white"/>
<g id="Group">
<g id="b">
<path id="a" fill-rule="evenodd" clip-rule="evenodd" d="M0.865723 6.60059L3.32487 2.91325L3.93943 3.32311L1.48028 7.01044L0.865723 6.60059ZM1.78756 7.21537L4.2467 3.52804L4.86126 3.9379L2.40211 7.62523L1.78756 7.21537ZM2.70939 7.83016L5.16854 4.14282L5.78309 4.55268L3.32395 8.24002L2.70939 7.83016Z" fill="black"/>
<path id="Vector_2" fill-rule="evenodd" clip-rule="evenodd" d="M0.865723 6.60059L3.32487 2.91325L3.93943 3.32311L1.48028 7.01044L0.865723 6.60059ZM1.78756 7.21537L4.2467 3.52804L4.86126 3.9379L2.40211 7.62523L1.78756 7.21537ZM2.70939 7.83016L5.16854 4.14282L5.78309 4.55268L3.32395 8.24002L2.70939 7.83016Z" fill="black"/>
</g>
<g id="Vector_3">
<path fill-rule="evenodd" clip-rule="evenodd" d="M15.3082 13.5688L18.381 15.6181Z" fill="black"/>
<path d="M15.3082 13.5688L18.381 15.6181" stroke="white" stroke-width="0.787935"/>
</g>
<path id="Vector_4" fill-rule="evenodd" clip-rule="evenodd" d="M6.39722 7.62598C7.04942 6.64803 8.0634 5.96923 9.21609 5.7389C10.3688 5.50857 11.5658 5.74558 12.5437 6.39779C13.5216 7.04999 14.2004 8.06397 14.4308 9.21666C14.6611 10.3694 14.4241 11.5663 13.7719 12.5443L6.39722 7.62598Z" fill="#CD2E3A"/>
<path id="Vector_5" fill-rule="evenodd" clip-rule="evenodd" d="M6.39713 7.62614C5.74493 8.60408 5.50792 9.80106 5.73825 10.9537C5.96858 12.1064 6.64738 13.1204 7.62532 13.7726C8.60326 14.4248 9.80024 14.6618 10.9529 14.4315C12.1056 14.2012 13.1196 13.5224 13.7718 12.5444C14.0979 12.0555 14.2164 11.457 14.1012 10.8806C13.9861 10.3043 13.6467 9.7973 13.1577 9.47119C12.6687 9.14509 12.0703 9.02659 11.4939 9.14175C10.9176 9.25692 10.4106 9.59632 10.0845 10.0853L6.39713 7.62614Z" fill="#0047A0"/>
<path id="Vector_6" d="M10.0845 10.0852C10.7636 9.06698 10.4886 7.69104 9.47042 7.01196C8.45219 6.33289 7.07625 6.60783 6.39718 7.62606C5.7181 8.64429 5.99304 10.0202 7.01127 10.6993C8.0295 11.3784 9.40544 11.1034 10.0845 10.0852Z" fill="#CD2E3A"/>
</g>
<g id="Group_2">
<g id="Group_3">
<path id="a_2" fill-rule="evenodd" clip-rule="evenodd" d="M3.3269 17.2573L0.867758 13.57L1.48231 13.1601L3.94146 16.8475L3.3269 17.2573ZM4.24874 16.6425L1.78959 12.9552L2.40415 12.5453L4.86329 16.2327L4.24874 16.6425ZM5.17057 16.0278L2.71143 12.3404L3.32598 11.9306L5.78513 15.6179L5.17057 16.0278Z" fill="black"/>
<path id="Vector_7" fill-rule="evenodd" clip-rule="evenodd" d="M3.3269 17.2573L0.867758 13.57L1.48231 13.1601L3.94146 16.8475L3.3269 17.2573ZM4.24874 16.6425L1.78959 12.9552L2.40415 12.5453L4.86329 16.2327L4.24874 16.6425ZM5.17057 16.0278L2.71143 12.3404L3.32598 11.9306L5.78513 15.6179L5.17057 16.0278Z" fill="black"/>
</g>
<g id="Vector_8">
<path fill-rule="evenodd" clip-rule="evenodd" d="M2.8656 14.9014L3.78743 14.2866ZM15.3104 6.60175L16.3858 5.8845ZM17.3077 5.26971L18.2295 4.65492Z" fill="black"/>
<path d="M2.8656 14.9014L3.78743 14.2866M15.3104 6.60175L16.3858 5.8845M17.3077 5.26971L18.2295 4.65492" stroke="white" stroke-width="0.787935"/>
</g>
</g>
</g>
</g>
<defs>
<clipPath id="clip0_1876_862">
<rect width="20.1711" height="20.1711" rx="10.0856" fill="white"/>
</clipPath>
</defs>
</svg>
